<svg width="100" height="100" viewBox="0 0 100 100" fill="none" xmlns="http://www.w3.org/2000/svg">
<path d="M22.2977 58.5469C21.6701 53.6826 20.7914 40.6589 22.2977 27.4783L79.2567 25.1246V49.6029L66.5469 78.3177L54.3077 91.0276H44.4223L32.6539 75.4933L22.2977 58.5469Z" fill="white"/>
<path d="M88.6387 3L65.1019 11.8263L61.9963 8.58998L49.7376 6.67762L37.4789 8.58998L34.5368 11.8263L11 3L18.8456 20.3584L11 39.7762L17.2111 56.3991L23.4222 71.1095L29.6333 78.4648L39.9306 91.41L50.228 97L60.5253 91.41L70.8226 78.4648L77.0337 71.1095L83.2448 56.3991L88.6387 39.7762L80.7931 20.3584L88.6387 3ZM74.4185 50.8091L70.3323 60.0767L66.246 65.6667L60.035 82.2895L53.8239 87.8795H45.6514L39.4403 82.2895L33.2292 65.6667L29.1429 60.0767L25.0567 50.8091V32.421L39.4403 30.5086L49.7376 36.0986L60.035 30.5086L74.4185 32.421V50.8091Z" fill="#B07DFB" stroke="#8844EE" stroke-width="3" stroke-linecap="round" stroke-linejoin="round"/>
<path d="M61.8724 48.6744C61.4494 48.8013 61.1597 49.1907 61.1597 49.6323V51.1494L59.2554 50.2581L60.8658 44.219L69.3322 41.1953V43.1273L65.7383 48.0438H64.1211C64.0238 48.0438 63.927 48.0581 63.8338 48.086L61.8724 48.6744ZM49.3137 57.3048C49.5776 57.4283 49.8822 57.4306 50.1479 57.311L53.2775 55.9027L57.0324 72.7994L55.0364 78.0502L53.3873 81.1424H51.8624C51.629 81.1424 51.4029 81.2241 51.2234 81.3733L49.7637 82.5859L48.4451 81.3992C48.2615 81.2339 48.0232 81.1424 47.7762 81.1424H46.2513L44.6021 78.0502L42.6062 72.7994L46.357 55.9211L49.3137 57.3048ZM35.8048 48.086C35.7116 48.0581 35.6148 48.0438 35.5174 48.0438H33.9003L30.3063 43.1273V41.1953L38.7728 44.219L40.3832 50.2581L38.4788 51.1494V49.6323C38.4788 49.1907 38.1892 48.8013 37.7662 48.6744L35.8048 48.086Z" fill="#B07DFB" stroke="#8844EE" stroke-width="2" stroke-linejoin="round"/>
</svg>
